# xmcd CD database file generated by Grip 3.3.1
#
# Track frame offsets:
#       150
#       15508
#       35148
#       55673
#       81507
#       99940
#       114698
#       125193
#       147651
#       175564
#       190572
#       204807
#       217779
#       240474
#       256531
#
# Disc length: 3742 seconds
#
# Revision: 1
# Processed by: cddbd v1.5.2PL0 Copyright (c) Steve Scherf et al.
# Submitted via: Grip 3.3.1
#
DISCID=c20e9c0f
DTITLE=Various Artist - Guitar Gods: A Bluegrass Celebration
DYEAR=2001
DGENRE=Bluegrass
TTITLE0=Lay Down Sally
TTITLE1=All Along the Watchtower
TTITLE2=Battle of Evermore
TTITLE3=Light My Fire
TTITLE4=Black Magic Woman
TTITLE5=Superstition
TTITLE6=Cocaine
TTITLE7=Sweet Home Alabama
TTITLE8=No Quarter
TTITLE9=Purple Haze
TTITLE10=Evil Ways
TTITLE11=Pride and Joy
TTITLE12=Sunshine of Your Love
TTITLE13=Wish You Were Here
TTITLE14=Stairway to Heaven
EXTD=
EXTT0=
EXTT1=
EXTT2=
EXTT3=
EXTT4=
EXTT5=
EXTT6=
EXTT7=
EXTT8=
EXTT9=
EXTT10=
EXTT11=
EXTT12=
EXTT13=
EXTT14=
PLAYORDER=
